<?xml version="1.0" encoding="iso-8859-1"?>
<!-- Generator: Adobe Illustrator 19.0.0, SVG Export Plug-In . SVG Version: 6.00 Build 0)  -->
<svg version="1.1" id="Layer_1" xmlns="http://www.w3.org/2000/svg" xmlns:xlink="http://www.w3.org/1999/xlink" x="0px" y="0px"
	 viewBox="0 0 300.019 300.019" style="enable-background:new 0 0 300.019 300.019;" xml:space="preserve">
<g>
	<g>
		<g>
			<path fill="rgb(12 74 110)" d="M150.009,0C67.297,0,0.003,67.294,0.003,150.006s67.294,150.012,150.006,150.012s150.006-67.3,150.006-150.012
				S232.722,0,150.009,0z M150.009,287.512c-75.825,0-137.506-61.681-137.506-137.506C12.503,74.187,74.184,12.5,150.009,12.5
				s137.506,61.688,137.506,137.506C287.516,225.838,225.834,287.512,150.009,287.512z"/>
			<path d="M203.709,38.35c-3.119-1.519-6.844-0.188-8.344,2.912c-1.5,3.112-0.194,6.856,2.919,8.35
				c38.325,18.469,63.088,57.869,63.088,100.394c0,3.456,2.794,6.25,6.25,6.25c3.456,0,6.25-2.794,6.25-6.25
				C273.872,102.719,246.328,58.887,203.709,38.35z"/>
			<path d="M150.009,38.637c8.006,0,15.975,0.85,23.675,2.531c0.444,0.088,0.9,0.138,1.337,0.138c2.875,0,5.463-1.994,6.106-4.925
				c0.731-3.375-1.412-6.7-4.781-7.437c-8.575-1.862-17.438-2.806-26.338-2.806c-3.456,0-6.25,2.794-6.25,6.25
				C143.759,35.85,146.553,38.637,150.009,38.637z"/>
			<path d="M150.009,106.244c-24.938,0-43.75,18.813-43.75,43.75s18.813,43.75,43.75,43.75s43.75-18.813,43.75-43.75
				S174.947,106.244,150.009,106.244z M150.009,181.25c-18.1,0-31.25-13.15-31.25-31.25c0-18.1,13.15-31.25,31.25-31.25
				c18.1,0,31.25,13.144,31.25,31.25C181.259,168.1,168.109,181.25,150.009,181.25z"/>
			<path d="M150.009,131.244c-10.688,0-18.75,8.063-18.75,18.75c0,10.694,8.063,18.75,18.75,18.75s18.75-8.056,18.75-18.75
				C168.759,139.306,160.697,131.244,150.009,131.244z M150.009,156.25c-3.794,0-6.25-2.456-6.25-6.25c0-3.794,2.456-6.25,6.25-6.25
				s6.25,2.45,6.25,6.25C156.259,153.794,153.803,156.25,150.009,156.25z"/>
		</g>
	</g>
</g>
<g>
</g>
<g>
</g>
<g>
</g>
<g>
</g>
<g>
</g>
<g>
</g>
<g>
</g>
<g>
</g>
<g>
</g>
<g>
</g>
<g>
</g>
<g>
</g>
<g>
</g>
<g>
</g>
<g>
</g>
</svg>
